/* XPM */
static char *back-up[] = {
/* width height num_colors chars_per_pixel */
"    33    33        8            1",
/* colors */
". c #000000",
"# c #330099",
"a c #888888",
"b c #aaaaaa",
"_ c none s backgroundToolBarColor",
"d c #cccccc",
"e c #eeeeee",
"f c #ffffff",
/* pixels */
"_________________________________",
"_________________________________",
"_________________________________",
"_________________________________",
"_________________________________",
"_____________#___________________",
"____________##___________________",
"___________#f#___________________",
"__________#fe######_b###b________",
"_________#fedeeeee#_#aea#ab______",
"________#feddddddd#b#eed#ab______",
"_________#eddddddd#a#ada#ab______",
"________ba#ed######ab###abb______",
"_________ba#e#aaaaaa_aaabbb______",
"__________ba##a__________________",
"___________ba#a__________________",
"____________baa__________________",
"_____________ba__________________",
"______________b__________________",
"_________________________________",
"_________________________________",
"_________________________________",
"_________________________________",
"_________________________________",
"_______....____________._________",
"_______.___.___________._________",
"_______.___.__..___..__.__.______",
"_______....__.__._.__._._._______",
"_______.___.__..._.____..________",
"_______.___._.__._.__._._._______",
"_______....___.._._..__.__.______",
"_________________________________",
"_________________________________"
};
