/* XPM */
static char *srch-up[] = {
/* width height num_colors chars_per_pixel */
"    34    33       18            1",
/* colors */
". c #000000",
"# c #252525",
"a c #330099",
"b c #4c4c4c",
"c c #555555",
"d c #6666cc",
"e c #737373",
"f c #777777",
"g c #888888",
"h c #999999",
"i c #9999ff",
"j c #aaaaaa",
"_ c none s backgroundToolBarColor",
"l c #bbbbbb",
"m c #cccccc",
"n c #e1e1e1",
"o c #eeeeee",
"p c #ffffff",
/* pixels */
"__________________________________",
"__________________________________",
"__________________________________",
"__________________________________",
"____________ica___ica_____________",
"____________od.gj_od.gj___________",
"____________daagj_daagj___________",
"_____________jomdammgggj__________",
"__________daaaadadaaaadgj_________",
"_________dmoomdmfadmpojdgj________",
"_________apommdpladmpmmagj________",
"_________apopmdaa.dmpmmagj________",
"_________amgaaapldaaagjagj________",
"_________apjgagjaamagmjagj________",
"_________apmjagjgggaomjagj________",
"_________apmjagjjjjapmjagj________",
"_________aaaaagj___aaaaagj________",
"_________apidagj___apidagj________",
"_________aaaaagj___aaaaagj________",
"__________gggggj____gggggj________",
"__________jjjjjj____jjjjjj________",
"__________________________________",
"__________________________________",
"__________________________________",
"________...._._________.__________",
"________.______________.__________",
"________.____._._.___...__________",
"________...._._.._._.__.__________",
"________.____._.__._.__.__________",
"________.____._.__._.__.__________",
"________.____._.__.__...__________",
"__________________________________",
"__________________________________"
};
