/* XPM */
static char * flush_xpm[] = {
"33 33 4 1",
"_   	c none s backgroundToolBarColor",
"X	c #5949bd",
"o	c #ff0000",
"+	c #000000",
"_________________________________",
"_________________________________",
"_______________XXX_______________",
"______________XXXXX______________",
"______________XXXXX______________",
"______________XXXXX______________",
"______________XXXXX______________",
"______________XXXXX______________",
"______________XXXXX______________",
"______________XXXXX______________",
"______________XXXXX______________",
"______________XXXXX______________",
"______________XXXXX______________",
"______________XXXXX______________",
"______________XXXXX______________",
"_______________XXX_______________",
"_________________________________",
"_________________________________",
"_______________ooo_______________",
"______________ooooo______________",
"______________ooooo______________",
"______________ooooo______________",
"_______________ooo_______________",
"_________________________________",
"____++++_+______________+________",
"____+____+______________+________",
"____+____+___+__+__++___+++______",
"____++++_+___+__+_+_____+__+_____",
"____+____+___+__+__+++__+__+_____",
"____+____+___+__+____+__+__+_____",
"____+_____++__++___++___+__+_____",
"_________________________________",
"_________________________________"};
