/* XPM */
static char *footprint[] = {
/* width height num_colors chars_per_pixel */
"    33    33        6            1",
/* colors */
"O c #000000",
"# c #c0c0c0",
"_ c none s backgroundToolBarColor",
"b c #585858",
"c c #808080",
"d c #5848b8",
/* pixels */
"_________________________________",
"_________________________________",
"__________#bOOOb#______dd_d______",
"_________OOOOOOOOO________d______",
"________OOOc####OOO___ddd________",
"_______OOO______#OOO__ddd_d______",
"______#OO__dd____#OO#__dd_d______",
"______bOc__dd_dd__cOb____________",
"______OO______dd__#OO____________",
"______OO__ddd_____#OO____________",
"______OO__dddd_dd_#OO____________",
"______bOc_dddd_dd_cOb____________",
"______#OO__ddd____OOc____________",
"__dd_dcOOO_______OOOc____________",
"_____d_cOOOc___cOOOOO____________",
"_ddd____cOOOOOOOOOOc_O___________",
"_ddd_d___ccbOOObccObc_O__________",
"__dd_d____#ccccc#ccObc_O_________",
"__________________ccObc_O________",
"___________________ccObc_O_______",
"____________________ccObc_O______",
"_____________________ccObc_O_____",
"______________________ccOOOO_____",
"_____OOO________________cOO______",
"_____O__O_______O____O___________",
"_____O__O_______O____O___________",
"_____OOO___OO___O____O___________",
"_____O____O__O__OOO__OOO_________",
"_____O_____OOO__O____O__O________",
"_____O____O__O__O____O__O________",
"_____O_____OO_O__OO__O__O________",
"_________________________________",
"_________________________________"
};
