/* XPM */
static char *forw-up[] = {
/* width height num_colors chars_per_pixel */
"    33    33       18            1",
/* colors */
". c #000000",
"# c #252525",
"a c #330099",
"b c #4c4c4c",
"c c #555555",
"d c #6666cc",
"e c #737373",
"f c #777777",
"g c #888888",
"h c #999999",
"i c #9999ff",
"j c #aaaaaa",
"k c none s backgroundToolBarColor",
"l c #bbbbbb",
"m c #cccccc",
"n c #e1e1e1",
"o c #eeeeee",
"p c #ffffff",
/* pixels */
"kkkkkkkkkkkkkkkkkkkkkkkkkkkkkkkkk",
"kkkkkkkkkkkkkkkkkkkkkkkkkkkkkkkkk",
"kkkkkkkkkkkkkkkkkkkkkkkkkkkkkkkkk",
"kkkkkkkkkkkkkkkkkkkkkkkkkkkkkkkkk",
"kkkkkkkkkkkkkkkkkkkkkkkkkkkkkkkkk",
"kkkkkkkkkkkkkkkkkkkkakkkkkkkkkkkk",
"kkkkkkkkkkkkkkkkkkkkaakkkkkkkkkkk",
"kkkkkkkkkkkkkkkkkkkkaoakkkkkkkkkk",
"kkkkkkkkkjaaajkaaaaaaooakkkkkkkkk",
"kkkkkkkkkagogakaooooomooakkkkkkkk",
"kkkkkkkkkaoomagaommmmmmooakkkkkkk",
"kkkkkkkkkagmgagaommmmmmoagjkkkkkk",
"kkkkkkkkkjaaagjaaaaaamoagjkkkkkkk",
"kkkkkkkkkkjggjjkggggaoagjkkkkkkkk",
"kkkkkkkkkkkkkkkkkkkkaagjkkkkkkkkk",
"kkkkkkkkkkkkkkkkkkkkagjkkkkkkkkkk",
"kkkkkkkkkkkkkkkkkkkkkjkkkkkkkkkkk",
"kkkkkkkkkkkkkkkkkkkkkkkkkkkkkkkkk",
"kkkkkkkkkkkkkkkkkkkkkkkkkkkkkkkkk",
"kkkkkkkkkkkkkkkkkkkkkkkkkkkkkkkkk",
"kkkkkkkkkkkkkkkkkkkkkkkkkkkkkkkkk",
"kkkkkkkkkkkkkkkkkkkkkkkkkkkkkkkkk",
"kkkkkkkkkkkkkkkkkkkkkkkkkkkkkkkkk",
"kkkkkkkkkkkkkkkkkkkkkkkkkkkkkkkkk",
"k....kkkkkkkkkkkkkkkkkkkkkkkkkk.k",
"k.kkkkkkkkkkkkkkkkkkkkkkkkkkkkk.k",
"k.kkkkk..kk.k..k.k.kk..kk.k.k...k",
"k....k.kk.k..k.k.k.k.kk.k..k.kk.k",
"k.kkkk.kk.k.kk.k.k.kk...k.kk.kk.k",
"k.kkkk.kk.k.kkk.k.kk.kk.k.kk.kk.k",
"k.kkkkk..kk.kkk.k.kkk..k..kkk...k",
"kkkkkkkkkkkkkkkkkkkkkkkkkkkkkkkkk",
"kkkkkkkkkkkkkkkkkkkkkkkkkkkkkkkkk"
};
