/* XPM */
static char * stat2_xpm[] = {
"33 33 4 1",
"_ 	c none",
".	c #5949BE",
"o      c #ff0000",
"O      c #000000",
"_________________________________",
"_________________________________",
"_________________________________",
"_________________________________",
"______________________...._______",
"____________________........_____",
"___________________..........____",
"___oo__o__________....__.....____",
"___oo__oo_________....__...._____",
"___oo__ooo_______..........______",
"___oo__oooo______........._______",
"___oo__ooooo_____........________",
"___oo__oooo______........._______",
"___oo__ooo________.........______",
"___oo__oo_________.........._____",
"___oo__o___________..........____",
"____________________........_____",
"______________________...._______",
"_________________________________",
"_________________________________",
"_________________________________",
"_________________________________",
"_________________________________",
"__OOO____________________________",
"__O__O________________________O__",
"__O__O________________________O__",
"__OOO____OO___OO__OO__OOO___OOO__",
"__O__O__O__O_O___O__O_O__O_O__O__",
"__O___O_OOOO_O___O__O_O____O__O__",
"__O___O_O____O___O__O_O____O__O__",
"__O___O__OOO__OO__OO__O_____OOO__",
"_________________________________",
"_________________________________"};
