/* XPM */
static char * gc_xpm[] = {
"33 33 4 1",
"       c none",
". 	c #5949BE",
"#	c #000000",
"+	c #ff0000",
"                                 ",
"                                 ",
"                                 ",
"                                 ",
"             ....                ",
"           ........              ",
"          ..........             ",
"         .....  .....            ",
"         .....  ....             ",
"        ...........              ",
"        ..........     ++        ",
"        .........     ++++       ",
"        ..........    ++++       ",
"        ...........    ++        ",
"         ...........             ",
"         ............            ",
"          ..........             ",
"           ........              ",
"             ....                ",
"                                 ",
"                                 ",
"                                 ",
"                                 ",
"                                 ",
"                                 ",
"           ###    ###            ",
"          #      #               ",
"          # ###  #               ",
"          #   #  #               ",
"          #   #  #               ",
"           ###    ###            ",
"                                 ",
"                                 "};
