/* XPM */
static char *begoo-icon[] = {
/* width height num_colors chars_per_pixel */
"    33   33       6            1",
/* colors */
"+ c #000000",
"_ c none s backgroundToolBarColor",
"c c #5949bd",
"a c #ff0000",
"d c #ffc125",
"e c #00ab00",
/* pixels */
"_________________________________",
"_________________________________",
"_____aa___aa___aa___aa___aa______",
"____aaaa_aaaa_aaaa_aaaa_aaaa_____",
"____aaaa_aaaa_aaaa_aaaa_aaaa_____",
"_____aa___aa___aa___aa___aa______",
"_________________________________",
"_____cc___cc___cc________________",
"____cccc_cccc_cccc_______________",
"____cccc_cccc_cccc_______________",
"_____cc___cc___cc________________",
"_________________________________",
"_____dd___dd___dd___dd___________",
"____dddd_dddd_dddd_dddd__________",
"____dddd_dddd_dddd_dddd__________",
"_____dd___dd___dd___dd___________",
"_________________________________",
"_____ee___ee_____________________",
"____eeee_eeee____________________",
"____eeee_eeee____________________",
"_____ee___ee_____________________",
"_________________________________",
"_________________________________",
"_________________________________",
"______+___+______________________",
"______+___+______________________",
"______+___+__++___++___+++_______",
"______+++++_+__+_+__+__+__+______",
"______+___+_++++__+++__+__+______",
"______+___+_+____+__+__+++_______",
"______+___+__++___++_+_+_________",
"_______________________+_________",
"_________________________________"
};"
