/* XPM */
static char *begoo-icon[] = {
/* width height num_colors chars_per_pixel */
"    33   33       6            1",
/* colors */
"+ c #000000",
"_ c none s backgroundToolBarColor",
"c c #5949bd",
"a c #ff0000",
"d c #ffc125",
"e c #00ab00",
/* pixels */
"_________________________________",
"_________________________________",
"_____aa___dd___cc___cc___aa______",
"____aaaa_dddd_cccc_cccc_aaaa_____",
"____aaaa_dddd_cccc_cccc_aaaa_____",
"_____aa___dd___cc___cc___aa______",
"_________________________________",
"_____dd___aa___ee___dd___________",
"____dddd_aaaa_eeee_dddd__________",
"____dddd_aaaa_eeee_dddd__________",
"_____dd___aa___ee___dd___________",
"_________________________________",
"_____dd___cc___aa________________",
"____dddd_cccc_aaaa_______________",
"____dddd_cccc_aaaa_______________",
"_____dd___cc___aa________________",
"_________________________________",
"_____aa___ee_____________________",
"____aaaa_eeee____________________",
"____aaaa_eeee____________________",
"_____aa___ee_____________________",
"_________________________________",
"_________________________________",
"_________________________________",
"______+___+______________________",
"______+___+______________________",
"______+___+__++___++___+++_______",
"______+++++_+__+_+__+__+__+______",
"______+___+_++++__+++__+__+______",
"______+___+_+____+__+__+++_______",
"______+___+__++___++_+_+_________",
"_______________________+_________",
"_________________________________"
};"
