/* XPM */
static char *foo[] = {
/* width height num_colors chars_per_pixel */
"    33    33        2            1",
/* colors */
"_ c none s backgroundToolBarColor",
"# c #000000",
/* pixels */
"_________________________________",
"_________________________________",
"_________________________________",
"_________________________________",
"_________________________________",
"_________________________________",
"__________##########_____________",
"_________##_#_#_#_#_#____________",
"________##_#_#_#_#_#_#___________",
"_______##_#_#######_#_#__________",
"_______#_#_#########_#_#_________",
"_______##_###########_#__________",
"_______#_#_###_#_###_#_#_________",
"_______##_#####_#####_#_#________",
"_______#_#_###_#_###_#_#_#_______",
"_______##_#_#_#_#####_#_#_#______",
"_______#_#_#_#_#####_#_####______",
"_______##_#_#_#####_#_#__________",
"________##_#_#####_#_#_#_________",
"_________##_#_###_#_#_#__________",
"__________##_#####_#_#___________",
"___________##_#_#_#_#_#__________",
"___________#_#_#_#_#_#___________",
"___________##_###_#______________",
"___________#_#####_#_____________",
"___________##_###_#______________",
"__________##_#_#_#_#_____________",
"__________#_#_#_#_#_#____________",
"_________________________________",
"_________________________________"
"_________________________________",
"_________________________________",
"_________________________________",
};
