/* XPM */
static char *begoo-icon[] = {
/* width height num_colors chars_per_pixel */
"    37    33        4            1",
/* colors */
". c #000000",
"_ c none s backgroundToolBarColor",
"c c #9898f8",
"a c #ff0000",
/* pixels */
"_____________________________________",
"_____________________________________",
"_________________.__......___________",
"________________.....____..._________",
"__..._____...._....________.._...____",
"__...____.aaaa......________..ccc.___",
"__...___.aaaaaa.____________.ccccc.__",
"__...___.aaaaaa.___________.ccccccc._",
"__...___.aaaaaa.___________.ccccccc._",
"__...___.aaaaaa.___________.ccccccc._",
"__...____.aaaa._____________.ccccc.__",
"__..._____...._____________...ccc.___",
"__..._____________________.......____",
"__...____________________....________",
"__...______________...____...________",
"__..._____________.ccc._..._.________",
"__...____________.ccccc..____________",
".......__________.ccccc._____________",
"_.....___________.ccccc._____________",
"__..._____________.ccc.______________",
"___._______________..._______________",
"_____________________________________",
"_____________________________________",
"_____________________________________",
"______._______________.______________",
"______._______________.__.___________",
"______._____..___..___._.___.._______",
"______.____.__._.__.__..___._________",
"______.____....__...__._.__..._______",
"______.____.____.__.__.__.___._______",
"______....__..___.._._.__._..________",
"_____________________________________",
"_____________________________________"
};"
