/* XPM */
static char *mem[] = {
/* width height num_colors chars_per_pixel */
"    33    33        4            1",
/* colors */
"_  c none",
"# c #000000",
"a c #5949bd",
"b c #808080",
/* pixels */
"_________________________________",
"___________________b_____________",
"__________________bab____________",
"_________________baaab___________",
"_______________##aaaaab__________",
"______________##aaaaaaab_________",
"______________baaaaaaaaab________",
"____________##aaaaaaaaabb________",
"___________##aaaaaaaaabab________",
"___________baaaaaaaaab#ab________",
"__________baaaaaaaaab###b________",
"________##aaaaaaaaaba####________",
"_______##aaaaaaaaabaaab##________",
"_______baaaaaaaaab#aab_##________",
"______baaaaaaaaab###b__#_________",
"______bbaaaaaaaba####____________",
"______babaaaaabaaab##____________",
"______baabaaab#aab_##____________",
"______baaabab###b__#_____________",
"_______baaaba####________________",
"________baabaab##________________",
"_________babab_##________________",
"__________bbb__#_________________",
"___________b_____________________",
"_________________________________",
"________##_##____________________",
"________#_#_#__##___#_#__________",
"________#_#_#_#__#_#_#_#_________",
"________#_#_#_####_#_#_#_________",
"________#___#_#____#_#_#_________",
"________#___#__##__#___#_________",
"_________________________________",
"_________________________________"
};
