/* XPM */
static char *replay[] = {
/* width height num_colors chars_per_pixel */
"    33    33       11            1",
/* colors */
". c none",
"# c #000000",
"a c #000000",
"b c #7864e8",
"c c #8979EE",
"d c #5949BE",
"e c #D0D0D0",
"f c #f0f4c8",
"g c #202488",
"h c #6858c8",
"i c #806cf8",
/* pixels */
".................................",
".................................",
".................................",
".................................",
".................................",
".........dddddccccccdg...........",
".........ddgddcccgccdgg..........",
".........ddgddcccgccdda..........",
".........ddgddccccccdda..........",
".........ddgddccccccdda..........",
".........ddddddddddddda..........",
".........ddddddddddddda..........",
".........ddddddddddddda..........",
".........dddeeeeeeeedda..........",
".........dddeeeeeeeedda..........",
".........dddeeeeeeeedda..........",
".........dadeeeeeeeedda..........",
".........dddeeeeeeeedda..........",
".........ddddddddddddda..........",
"..........aaaaaaaaaaaaa..........",
".................................",
".................................",
".................................",
".................................",
"....###............#.............",
"....#..#...........#.............",
"....#..#..##..###..#..##..#..#...",
"....####.#..#.#..#.#.#..#.#..#...",
"....#..#.####.#..#.#..###.#..#...",
"....#..#.#....###..#.#..#..###...",
"....#..#..##..#....#..##.#...#...",
"..............#............##....",
"................................."
};
