/* XPM */
static char * gc_xpm[] = {
"33 33 6 1",
"_      c none",
". 	c #5949BE",
"#	c #000000",
"+	c #ff0000",
"a      c #ff0000",
"d      c #ffc125",
"_________________________________",
"_________________________________",
"_________________________________",
"_________________________________",
"_____________..dd________________",
"___________....dddd______________",
"__________.....ddddd_____________",
"_________......dddddd____________",
"_________......dddddd____________",
"________.......ddddddd___________",
"________.......ddddddd___________",
"________.......ddddddd___________",
"________.......aaaaaaa___________",
"________......aaaaaaaa___________",
"_________....aaaaaaaa____________",
"_________...aaaaaaaaa____________",
"__________.aaaaaaaaa_____________",
"___________aaaaaaaa______________",
"_____________aaaa________________",
"_________________________________",
"_________________________________",
"_________________________________",
"_________________________________",
"_________________________________",
"_______###__#_________#__________",
"______#_____#_________#__________",
"______#_____###__##___###________",
"_______###__#___#__#__#__________",
"__________#_#____###__#__________",
"__________#_#___#__#__#__________",
"______####___##__##_#__##________",
"_________________________________",
"_________________________________"};
