/* XPM */
static char *stat2[] = {
/* width height num_colors chars_per_pixel */
"    33    33        5            1",
/* colors */
". c none",
"# c #000000",
"a c #5848b8",
"b c #f80000",
"c c #f8c020",
/* pixels */
".................................",
".................................",
".................................",
".................................",
"..#..............................",
"..#.........aa..aa...............",
"..#.........aa..aa...............",
"..#.........aa..aa...............",
"..#.........aa..aa......aa.......",
"..#.........aa..aa......aa.......",
"..#.....aa..aa..aa..aa..aa..aa...",
"..#.....aa..cc..aa..aa..aa..aa...",
"..#.....aa..cc..aa..aa..aa..aa...",
"..#.....aa..cc..cc..aa..aa..cc...",
"..#.aa..aa..cc..cc..cc..aa..cc...",
"..#.aa..cc..bb..cc..cc..cc..cc...",
"..#.aa..cc..bb..bb..cc..cc..bb...",
"..#.cc..bb..bb..bb..bc..bb..bb...",
"..#.bb..bb..bb..bb..bb..bb..bb...",
"..#.bb..bb..bb..bb..bb..bb..bb...",
"..#############################..",
".................................",
".................................",
".................................",
"........###..#.........#.........",
".......#.....#.........#.........",
".......#.....###..##...###.......",
"........###..#...#..#..#.........",
"...........#.#....###..#.........",
"...........#.#...#..#..#.........",
".......####...##..##.#..##.......",
".................................",
"................................."
};
