/* XPM */
static char *runner1[] = {
"7 7 3 1",
"_     c none",
"#     c black",
"$     c #ff0000",
"___#___",
"___$___",
"___#___",
"___$___",
"___$___",
"__##___",
"___#___"
};
