/* XPM */
static char *runner1[] = {
"7 7 3 1",
"_     c none",
"#     c black",
"$     c #ff0000",
"___#___",
"__#$#__",
"_#_$_#_",
"___$___",
"___$#__",
"_##__#_",
"_______"
};
