/* XPM */
static char *runner1[] = {
"7 7 3 1",
"_     c none",
"#     c black",
"$     c #ff0000",
"___#___",
"__#$___",
"__#$___",
"___$#__",
"___$#__",
"__##___",
"__#____"
};
