/* XPM */
static char *runner1[] = {
"7 7 3 1",
"_     c none",
"#     c black",
"$     c #ff0000",
"___#___",
"__#$___",
"_#_$#__",
"___$___",
"_#_$___",
"__#_#__",
"_____#_"
};
