/* XPM */
static char *runner6[] = {
/* width height num_colors chars_per_pixel */
"    26    35      111            2",
/* colors */
".. c #000000",
".# c #000400",
".a c #080808",
".b c #080c08",
".c c #081020",
".d c #101010",
".e c #181000",
".f c #181410",
".g c #181810",
".h c #181818",
".i c #181c18",
".j c #182020",
".k c #202020",
".l c #202420",
".m c #281808",
".n c #282420",
".o c #282828",
".p c #282c28",
".q c #303030",
".r c #303430",
".s c #382808",
".t c #383838",
".u c #403830",
".v c #403c30",
".w c #403c38",
".x c #404040",
".y c #484030",
".z c #484840",
".A c #484848",
".B c #505050",
".C c #583810",
".D c #585850",
".E c #585858",
".F c #606058",
".G c #686048",
".H c #686050",
".I c #686458",
".J c #686868",
".K c #686c68",
".L c #704000",
".M c #705820",
".N c #707070",
".O c #787470",
".P c #787870",
".Q c #787878",
".R c #787880",
".S c #787c78",
".T c #804800",
".U c #808480",
".V c #885008",
".W c #888888",
".X c #909088",
".Y c #909098",
".Z c #909490",
".0 c #987040",
".1 c #988468",
".2 c #989898",
".3 c #989c98",
".4 c #a07828",
".5 c #a0a4a0",
".6 c #a89450",
".7 c #a8a898",
".8 c #a8a8a8",
".9 c #a8aca8",
"#. c #b08410",
"## c #b0b0b0",
"#a c #b0b4b0",
"#b c #b0b4b8",
"#c c #c06810",
"#d c #c09428",
"#e c #c0c4c0",
"#f c #c8ccc8",
"#g c #d08c00",
"#h c #d0d4d0",
"#i c #d8bc68",
"#j c #d8dcd8",
"#k c #e89410",
"#l c #e8ac50",
"#m c #e8bc50",
"#n c #e8ece8",
"#o c #f08400",
"#p c #f88400",
"#q c #f88418",
"#r c #f88c00",
"#s c #f89400",
"#t c #f89c00",
"#u c #f89c08",
"#v c #f89c10",
"#w c #f89c18",
"#x c #f8a400",
"#y c #f8a410",
"#z c #f8a418",
"#A c #f8a428",
"#B c #f8ac00",
"#C c #f8ac10",
"#D c #f8ac30",
"#E c #f8ac48",
"#F c #f8b408",
"#G c #f8b418",
"#H c #f8bc10",
"#I c #f8bc20",
"#J c #f8bc30",
"#K c #f8c430",
"#L c #f8c450",
"#M c #f8cc30",
"#N c #f8cc50",
"#O c #f8cc78",
"#P c #f8dcb0",
"#Q c #f8f8f8",
"#R c #f8fcf0",
"#S c None",
/* pixels */
"#S#S#S#S#S#S#S#S#S#S#S#S#S#S#S#S#S#S#S#S#S#S#S#S#S#S",
"#S#S#S#S#S#S#S#S#S#S#S#S#S#S#S#S#S#S#S#S#S#S#S#S#S#S",
"#S#S#S#S#S#S#S#S#S#S#S#S#S#S#S#S#S#S#S#S#S#S#S#S#S#S",
"#S#S#S#S#S#S#S#S#S#S#S#S#S#S#S#S#S#S#S#S#S#S#S#S#S#S",
"#S#S#S#S#S#S#S#S#S#S#S#S#S#S#S#S#S#S#S#S#S#S#S#S#S#S",
"#S#S#S#S#S#S#S#S#S#S#S#S#S#S#S#S#S#S#S#S#S#S#S#S#S#S",
"#S#S#S#S#S#S#S#S#S#S#S#S.S.....S#S#S#S#S#S#S#S#S#S#S",
"#S#S#S#S#S#S#S#S#S#S#S.A.b.#.....x#S#S#S#S#S#S#S#S#S",
"#S#S#S#S#S#S#S#S#S#S.B.............o#S#S#S#S#S#S#S#S",
"#S#S#S#S#S#S#S#S#S#S.a.........f#n.J#S#S#S#S#S#S#S#S",
"#S#S#S#S#S#S#S#S#S.x...r.D.p..#n.g.h#i#S#S#S#S#S#S#S",
"#S#S#S#S#S#S#S#S#S.k.....r.1.6#P.Y#y#y#N#S#S#S#S#S#S",
"#S#S#S#S#S#S#S#S#S.p......#.#N#O#m#k#s#B#I#J#C#S#S#S",
"#S#S#S#S#S#S#S#S#S.O.......T#s#v#z#t#s#t#t#t#t#S#S#S",
"#S#S#S#S#S#S#S#S#S#S.......#.L#c#p#p#r#r#p#r#S#S#S#S",
"#S#S#S#S#S#S#S#S#S.j.........b.e.m.0#Q#Q#S#S#S#S#S#S",
"#S#S#S#S#S#S#S#S.z...........n.w.b.d#S#S#S#S#S#S#S#S",
"#S#S#S#S#S#S#S#S...............k.z.f.t#S#S#S#S#S#S#S",
"#S#S#S#S#S#S#S.x.................d.B.U.Z#S#S#S#S#S#S",
"#S#S#S#S#S#S#S.l.........#.i.b.....k.8.Y#S#S#S#S#S#S",
"#S#S#S#S#S#S#S.i...........h.x.l.....O#f.S#S#S#S#S#S",
"#S#S#S#S#S#S.A.h.............b.A.p...p#j.W#S#S#S#S#S",
"#S#S#S#S#S.k.o.f...............h.B.d...3.U#S#S#S#S#S",
"#S#S#S#S#S.o.p.d.................p.q...8.Y.S#S#S#S#S",
"#S#S#S#S#S#S.E.................g.J.F.h#f##.S#S#S#S#S",
"#S#S#S#S#S#S.F...............b.A.5.9.P#Q#a.Q#S#S#S#S",
"#S#S#S#S#S#S.H...............j.J.8#j#n#S.2.S#S#S#S#S",
"#S#S#S#S#S#I#B.V.m.......#...n.N.9#j#S#R.K#S#S#S#S#S",
"#S#S#S#S#S#t#F#K#l.M.b.....a.q.U.9#h#S.8.H#S#S#S#S#S",
"#S#S#S#S.G#d#t#B#K#M#d.y.#.b.q.W#b#e#b.I#d#K#L#S#S#S",
"#S#S#S#S.b.v#c#t#t#H#K#m.0.y.u.X#e.7.0#d#M#C#w#S#S#S",
"#S#S#S#S.z...b.V#o#r#x#G#K#D#d.1.Y.G#d#J#y#r#S#S#S#S",
"#S#S#S#S#S.R.f...s.V#o#o#r#k#..C.M#g#u#r#A#S#S#S#S#S",
"#S#S#S#S#S#S#S#S.Y.J.1.4#c#c#c#c#o#q#E#S#S#S#S#S#S#S",
".c.c.c.c.c.c.c.c.c.c.c.c.c.c.c.c.c.c.c.c.c.c.c.c.c.c"
};
