/* XPM */
static char *runner1[] = {
/* width height num_colors chars_per_pixel */
"    26    35      113            2",
/* colors */
".. c #000000",
".# c #000400",
".a c #080000",
".b c #080808",
".c c #080c08",
".d c #081020",
".e c #101010",
".f c #181000",
".g c #181410",
".h c #181818",
".i c #181c18",
".j c #182020",
".k c #202020",
".l c #202420",
".m c #281808",
".n c #282828",
".o c #282c28",
".p c #303030",
".q c #303430",
".r c #382808",
".s c #383428",
".t c #383430",
".u c #383838",
".v c #403018",
".w c #404040",
".x c #484030",
".y c #484848",
".z c #502800",
".A c #505050",
".B c #583810",
".C c #585850",
".D c #585858",
".E c #603800",
".F c #606060",
".G c #686050",
".H c #686460",
".I c #686868",
".J c #686c68",
".K c #707068",
".L c #707070",
".M c #787470",
".N c #787870",
".O c #787878",
".P c #787c78",
".Q c #804800",
".R c #808480",
".S c #885008",
".T c #888c88",
".U c #906008",
".V c #909098",
".W c #909490",
".X c #986828",
".Y c #987040",
".Z c #988468",
".0 c #989890",
".1 c #989898",
".2 c #989c98",
".3 c #a08438",
".4 c #a0a0a0",
".5 c #a0a4a0",
".6 c #a89450",
".7 c #a8a8a8",
".8 c #a8aca8",
".9 c #b0ac90",
"#. c #b0b0b0",
"## c #b0b4b8",
"#a c #b8b8b8",
"#b c #b8bcb8",
"#c c #c06810",
"#d c #c0c4c0",
"#e c #c8ccc8",
"#f c #d08c00",
"#g c #d0d4d0",
"#h c #d8bc68",
"#i c #d8dcd8",
"#j c #e89410",
"#k c #e8ac50",
"#l c #e8cc78",
"#m c #e8e8e0",
"#n c #e8e8e8",
"#o c #e8ece8",
"#p c #f08400",
"#q c #f0f0f0",
"#r c #f0f4f0",
"#s c #f88400",
"#t c #f88418",
"#u c #f88c08",
"#v c #f89400",
"#w c #f89408",
"#x c #f89428",
"#y c #f89c00",
"#z c #f89c10",
"#A c #f8a400",
"#B c #f8a410",
"#C c #f8a420",
"#D c #f8ac00",
"#E c #f8ac10",
"#F c #f8ac30",
"#G c #f8ac48",
"#H c #f8b408",
"#I c #f8b418",
"#J c #f8b438",
"#K c #f8b450",
"#L c #f8bc20",
"#M c #f8c430",
"#N c #f8c448",
"#O c #f8c450",
"#P c #f8cc30",
"#Q c #f8cc38",
"#R c #f8cc50",
"#S c #f8f8f8",
"#T c #f8fcf0",
"#U c None",
/* pixels */
"#U#U#U#U#U#U#U#U#U#U#U#U#U#U#U#U#U#U#U#U#U#U#U#U#U#U",
"#U#U#U#U#U#U#U#U#U#U#U#U#U#U#U#U#U#U#U#U#U#U#U#U#U#U",
"#U#U#U#U#U#U#U#U#U#U#U#U#U#U#U#U#U#U#U#U#U#U#U#U#U#U",
"#U#U#U#U#U#U#U#U#U#U#U#U#U#U#U#U#U#U#U#U#U#U#U#U#U#U",
"#U#U#U#U#U#U#U#U#U#U#U#U.P.....P#U#U#U#U#U#U#U#U#U#U",
"#U#U#U#U#U#U#U#U#U#U#U.k.......#.p#U#U#U#U#U#U#U#U#U",
"#U#U#U#U#U#U#U#U#U#U.n.........b.h.h#U#U#U#U#U#U#U#U",
"#U#U#U#U#U#U#U#U#U.J.........o#.#o.I#U#U#U#U#U#U#U#U",
"#U#U#U#U#U#U#U#U#U.o.#.A.C.k.W#r.h.h#Q#U#U#U#U#U#U#U",
"#U#U#U#U#U#U#U#U#U.b...c.w.G#h#l.V#B#y#O#U#U#U#U#U#U",
"#U#U#U#U#U#U#U#U#U.#.......U#I#F#N#B#v#D#I#L#D#U#U#U",
"#U#U#U#U#U#U#U#U#U.e.......Q#p#v#w#y#v#y#y#y#v#U#U#U",
"#U#U#U#U#U#U#U#U#U.F.i.i.....z#c#u#s#s#s#s#u#U#U#U#U",
"#U#U#U#U#U#U#U#U#U.A.e.e.......c.Z#U#S#S#U#U#U#U#U#U",
"#U#U#U#U#U#U#U#U.#...............j#b#U#U#U#U#U#U#U#U",
"#U#U#U#U#U#U#U.e.................c.u.5#U#U#U#U#U#U#U",
"#U#U#U#U#U#U.p.................b.y.F.k.y#U#U#U#U#U#U",
"#U#U#U#U#U.T.......c.q.#.....c.D#e#e.u.b.b.D#U#U#U#U",
"#U#U#U#U.O.g.......w.w.....b.t.5#q#T#d.p.....n#U#U#U",
"#U#U.M...........l.A.e.....c.D#.#o#T#i.K.....b.P#U#U",
"#U#U.L.....#.i.w.A.g.......n.M#b#o#U#U.1#U#U#U#U#U#U",
"#U#U#U.K.O.O.R.A.b.........p.O#a#q#T#T.2#U#U#U#U#U#U",
"#U#U#U#U#U#U#U.g.........#.u.R#.#n#T#T.8.5#U#U#U#U#U",
"#U#U#U#U#U#U#U...........b.o.O.8#i#U#U#i.0#U#U#U#U#U",
"#U#U#U#E#M#U.G...........b.p.L.4#g#r#U#T.6#U#U#U#U#U",
"#U#U#s#y#P#O.x...........#.n.H.W#b#m#T#T.3#z#t#J#U#U",
"#U#U#u#v#H#M.v.............i.A.T.7#b#U#T.3#x#K#N#B#U",
"#U#U#U#s#v#A.r.............e.u.I.2###T.3#x#G#O#C#C#U",
"#U#U#U.Y.E.S.c.............#.j.w.N.9.3#x#R#O#I#y#U#U",
"#U#U#U.y.....................#.g.s.3#x#M#L#D#y#U#U#U",
"#U#U#U#U.#.....................a.m.3#u#I#y#y#U#U#U#U",
"#U#U#U#U#U.v.....................f#f#A#y#v#U#U#U#U#U",
"#U#U#U#U#U#U#x#x.B.m.............y#k#z#U#U#U#U#U#U#U",
"#U#U#U#U#U#U#T#S#x#j.X.y.q.w.A.0#U#U#U#U#U#U#U#U#U#U",
".d.d.d.d.d.d.d.d.d.d.d.d.d.d.d.d.d.d.d.d.d.d.d.d.d.d"
};
