/* XPM */
static char *runner2[] = {
/* width height num_colors chars_per_pixel */
"    26    35       96            2",
/* colors */
".. c #000000",
".# c #000400",
".a c #080808",
".b c #080c08",
".c c #081020",
".d c #101010",
".e c #181410",
".f c #181810",
".g c #181818",
".h c #181c18",
".i c #182020",
".j c #202020",
".k c #202420",
".l c #281808",
".m c #282828",
".n c #282c28",
".o c #303030",
".p c #303430",
".q c #382808",
".r c #383838",
".s c #404040",
".t c #484848",
".u c #502800",
".v c #505050",
".w c #585850",
".x c #585858",
".y c #606058",
".z c #606060",
".A c #686460",
".B c #686860",
".C c #686868",
".D c #686c68",
".E c #704000",
".F c #707070",
".G c #787470",
".H c #787870",
".I c #787878",
".J c #787c78",
".K c #804800",
".L c #808080",
".M c #808490",
".N c #888c88",
".O c #888c90",
".P c #906008",
".Q c #909098",
".R c #909490",
".S c #986828",
".T c #987040",
".U c #988468",
".V c #989c98",
".W c #a0a0a0",
".X c #a0a4a0",
".Y c #a8a8a8",
".Z c #a8aca8",
".0 c #b8b8b8",
".1 c #b8bcb8",
".2 c #c8bc90",
".3 c #c8ccc8",
".4 c #c8d4d0",
".5 c #d08c00",
".6 c #d0bc80",
".7 c #d0c4a0",
".8 c #d0d4d0",
".9 c #d8bc68",
"#. c #d8dcd8",
"## c #e0e4e0",
"#a c #e89410",
"#b c #e8ac50",
"#c c #e8e8e0",
"#d c #e8ece8",
"#e c #f08400",
"#f c #f0c448",
"#g c #f0f0f0",
"#h c #f0f4f0",
"#i c #f88400",
"#j c #f88c00",
"#k c #f88c08",
"#l c #f89400",
"#m c #f89c00",
"#n c #f89c08",
"#o c #f89c10",
"#p c #f8a400",
"#q c #f8a410",
"#r c #f8ac00",
"#s c #f8ac10",
"#t c #f8b418",
"#u c #f8bc20",
"#v c #f8bc30",
"#w c #f8c430",
"#x c #f8cc48",
"#y c #f8cc50",
"#z c #f8cc58",
"#A c #f8d488",
"#B c #f8f8f8",
"#C c #f8fcf0",
"#D c None",
/* pixels */
"#D#D#D#D#D#D#D#D#D#D#D#D#D#D#D#D#D#D#D#D#D#D#D#D#D#D",
"#D#D#D#D#D#D#D#D#D#D#D#D#D#D#D#D#D#D#D#D#D#D#D#D#D#D",
"#D#D#D#D#D#D#D#D#D#D#D#D#D#D#D#D#D#D#D#D#D#D#D#D#D#D",
"#D#D#D#D#D#D#D#D#D#D#D#D#D#D#D#D#D#D#D#D#D#D#D#D#D#D",
"#D#D#D#D#D#D#D#D#D#D#D#D#D#D#D#D#D#D#D#D#D#D#D#D#D#D",
"#D#D#D#D#D#D#D#D#D#D#D#D#D#D#D#D#D#D#D#D#D#D#D#D#D#D",
"#D#D#D#D#D#D#D#D#D#D#D.J.....J#D#D#D#D#D#D#D#D#D#D#D",
"#D#D#D#D#D#D#D#D#D#D.j.#.......j#D#D#D#D#D#D#D#D#D#D",
"#D#D#D#D#D#D#D#D#D.j..............#D#D#D#D#D#D#D#D#D",
"#D#D#D#D#D#D#D#D.D...#.....b.W#d.C#D#D#D#D#D#D#D#D#D",
"#D#D#D#D#D#D#D#D.h...t.y.t.G#D.f.g.9#D#D#D#D#D#D#D#D",
"#D#D#D#D#D#D#D#D.g.....j.H#A#A.Q#q#u#A#D#D#D#D#D#D#D",
"#D#D#D#D#D#D#D#D.k.......P#t#x#f#o#l#s#v#v#v#D#D#D#D",
"#D#D#D#D#D#D#D#D.A.......u#j#j#q#n#m#r#r#p#m#D#D#D#D",
"#D#D#D#D#D#D#D#D#D.........K#e#j#j#l#l#l#j#D#D#D#D#D",
"#D#D#D#D#D#D#D#D.#.#.........l.u.S#D#B#D#D#D#D#D#D#D",
"#D#D#D#D#D#D#D.d.t.h.............b#D#D#D#D#D#D#D#D#D",
"#D#D#D#D#D#D.g.v.o.............#.m.m#D#D#D#D#D#D#D#D",
"#D#D#D#D#D#D.v.m.............d.s.N.s.a#D#D#D#D#D#D#D",
"#D#D#D#D#D.C.o.......h.h...b.p.Q##.R.#.j#D#D#D#D#D#D",
"#D#D#D#D#D.v.#.....o.t.b...m.G.3#C#..v...t#D#D#D#D#D",
"#D#D#D#D.R.e.....k.w.d...b.v.Y#d#D#D.F#D#D#D#D#D#D#D",
"#D#D#D#D.i.#.h.s.x.e.....m.J.3#h#C#C.Z.N#D#D#D#D#D#D",
"#D#D#D#D.C.y.v.s.d.....b.v.Y###D#D#D##.I#D#D#D#D#D#D",
"#D#D#D#D#D.N...........j.G.1#c#C#C#D#h.O#D#D#D#D#D#D",
"#D#D#D#D#D.z.........#.n.I.1#d#D#C#C#g.Q#D#D#D#D#D#D",
"#D#D#D#D#D.v.........a.r.L.Z#g#D#C#C#..J#D#D#D#D#D#D",
"#D#D#D#D#D.s.........b.p.M.0###C#D#C.X.Q#D#D#D#D#D#D",
"#D#D#D#D#D.w.........d.r.J.Z.8#B#C#..F.2#D#D#D#D#D#D",
"#D#D#D...e.n.........#.n.F.W.Z.4#..U#b#y#w#s#D#D#D#D",
"#D#D#D.a...............m.D.V.Y.7.6#x#z#z#v#k#D#D#D#D",
"#D#D#D#D...............l.T.9#b#f#z#z#x#t#m#D#D#D#D#D",
"#D#D#D#D#D.b...........E.5#q#s#q#v#q#k#i#D#D#D#D#D#D",
"#D#D#D#D#D#D#D.B.s.q.T#a#i#i#j#j#i#i#D#D#D#D#D#D#D#D",
".c.c.c.c.c.c.c.c.c.c.c.c.c.c.c.c.c.c.c.c.c.c.c.c.c.c"
};
