/* XPM */
static char *runner4[] = {
/* width height num_colors chars_per_pixel */
"    26    35       92            2",
/* colors */
".. c #000000",
".# c #000400",
".a c #080000",
".b c #080808",
".c c #080c08",
".d c #081020",
".e c #101010",
".f c #181000",
".g c #181410",
".h c #181810",
".i c #181818",
".j c #181c18",
".k c #201c18",
".l c #202020",
".m c #202420",
".n c #281808",
".o c #282828",
".p c #282c28",
".q c #303030",
".r c #303430",
".s c #382808",
".t c #383838",
".u c #404040",
".v c #484030",
".w c #484848",
".x c #505050",
".y c #585850",
".z c #585858",
".A c #606058",
".B c #686868",
".C c #686c68",
".D c #705820",
".E c #707070",
".F c #787470",
".G c #787878",
".H c #787880",
".I c #787c78",
".J c #804800",
".K c #808080",
".L c #808480",
".M c #808488",
".N c #885008",
".O c #888c88",
".P c #906008",
".Q c #909098",
".R c #986828",
".S c #988468",
".T c #989898",
".U c #989c98",
".V c #a0a4a0",
".W c #a89450",
".X c #a8aca8",
".Y c #b08410",
".Z c #b0b4b0",
".0 c #b0b4b8",
".1 c #b86800",
".2 c #b8bcb8",
".3 c #c06810",
".4 c #c8ccc8",
".5 c #c8d4d0",
".6 c #d8bc68",
".7 c #d8dcd8",
".8 c #e0e4e0",
".9 c #e89410",
"#. c #e8bc50",
"## c #e8ece8",
"#a c #f0a420",
"#b c #f88400",
"#c c #f88c00",
"#d c #f89400",
"#e c #f89408",
"#f c #f89428",
"#g c #f89c00",
"#h c #f89c18",
"#i c #f8a400",
"#j c #f8a410",
"#k c #f8a418",
"#l c #f8a428",
"#m c #f8ac00",
"#n c #f8ac10",
"#o c #f8b408",
"#p c #f8b418",
"#q c #f8bc10",
"#r c #f8bc30",
"#s c #f8c430",
"#t c #f8c448",
"#u c #f8cc38",
"#v c #f8cc48",
"#w c #f8cc58",
"#x c #f8dcb0",
"#y c #f8f8f8",
"#z c None",
/* pixels */
"#z#z#z#z#z#z#z#z#z#z#z#z#z#z#z#z#z#z#z#z#z#z#z#z#z#z",
"#z#z#z#z#z#z#z#z#z#z#z#z#z#z#z#z#z#z#z#z#z#z#z#z#z#z",
"#z#z#z#z#z#z#z#z#z#z#z#z#z#z#z#z#z#z#z#z#z#z#z#z#z#z",
"#z#z#z#z#z#z#z#z#z#z#z#z#z#z#z#z#z#z#z#z#z#z#z#z#z#z",
"#z#z#z#z#z#z#z#z#z#z#z#z#z#z#z#z#z#z#z#z#z#z#z#z#z#z",
"#z#z#z#z#z#z#z#z#z#z#z#z#z#z#z#z#z#z#z#z#z#z#z#z#z#z",
"#z#z#z#z#z#z#z#z#z#z#z#z.I.....I#z#z#z#z#z#z#z#z#z#z",
"#z#z#z#z#z#z#z#z#z#z#z.C.g........#z#z#z#z#z#z#z#z#z",
"#z#z#z#z#z#z#z#z#z#z.r.............t#z#z#z#z#z#z#z#z",
"#z#z#z#z#z#z#z#z#z.I...........u##.B#z#z#z#z#z#z#z#z",
"#z#z#z#z#z#z#z#z#z.q.#.m.m...m.7.h.i.6#z#z#z#z#z#z#z",
"#z#z#z#z#z#z#z#z#z.j...o.z.E.W#x.Q#j#p#w#z#z#z#z#z#z",
"#z#z#z#z#z#z#z#z#z.j.......P#h#t#.#e#g#m#r#r#o#z#z#z",
"#z#z#z#z#z#z#z#z#z.C.....a.N#b#c#j#j#m#o#i#i#d#z#z#z",
"#z#z#z#z#z#z#z#z#z#z.......n.J.1#b#c#c#c#d#c#z#z#z#z",
"#z#z#z#z#z#z#z#z#z.c...........f.s.D#z#z#z#z#z#z#z#z",
"#z#z#z#z#z#z#z#z.w.................o#z#z#z#z#z#z#z#z",
"#z#z#z#z#z#z#z#z.............#.r.w.k.H#z#z#z#z#z#z#z",
"#z#z#z#z#z#z#z.w.................l.u.A.L#z#z#z#z#z#z",
"#z#z#z#z#z#z#z.c...........c.#.....h.I.K.V#z#z#z#z#z",
"#z#z#z#z#z#z#z.............l.w.g.....u.2.F#z#z#z#z#z",
"#z#z#z#z#z#z.F...............m.w.#...h.T.G#z#z#z#z#z",
"#z#z#z#z#z#z.x.................w.p...b.Q.X.L#z#z#z#z",
"#z#z#z#z#z#z.w.................e.w.c.#.U.X.K#z#z#z#z",
"#z#z#z#z#z#z.u...................w.q.g.X.Z.L#z#z#z#z",
"#z#z#z#z#z#z.u...................e.u.t.5.X.K#z#z#z#z",
"#z#z#z#z#z#z.x...................b.t.G#z.L#z#z#z#z#z",
"#z#z#z#z#z#z.x...................j.K.4.8.B#z#z#z#z#z",
"#z#z#z#z#z#z.y.c.................q.V.4.4.M#r#s#z#z#z",
"#z#z#z#z...k.Y.9.P.n...........#.t.Q.0.L#w#q#t#z#z#z",
"#z#z#z#z.b.D#k#o#q#a.D.c.......#.q.O.K.6#p#o#z#z#z#z",
"#z#z#z#z#z.S#k#g#g#q#u.W.v.g.....g.K.L#g#g#z#z#z#z#z",
"#z#z#z#z#z#z#y#e#c#e#n#s#w.6.D.h.s.3#b#e#z#z#z#z#z#z",
"#z#z#z#z#z#z#z#y#z#f#c#d#j#s#v.R.1#l#z#z#z#z#z#z#z#z",
".d.d.d.d.d.d.d.d.d.d.d.d.d.d.d.d.d.d.d.d.d.d.d.d.d.d"
};
