/* XPM */
static char *runner5[] = {
/* width height num_colors chars_per_pixel */
"    26    35      103            2",
/* colors */
".. c #000000",
".# c #000400",
".a c #080808",
".b c #080c08",
".c c #081020",
".d c #101010",
".e c #181410",
".f c #181810",
".g c #181818",
".h c #182020",
".i c #202020",
".j c #202420",
".k c #281808",
".l c #282420",
".m c #282828",
".n c #282c28",
".o c #303030",
".p c #303430",
".q c #382808",
".r c #383838",
".s c #403018",
".t c #404040",
".u c #484030",
".v c #484848",
".w c #502800",
".x c #504030",
".y c #505048",
".z c #505050",
".A c #585850",
".B c #585858",
".C c #603800",
".D c #686050",
".E c #686460",
".F c #686868",
".G c #686c68",
".H c #704000",
".I c #707068",
".J c #707070",
".K c #787470",
".L c #787478",
".M c #787870",
".N c #787878",
".O c #787c78",
".P c #808480",
".Q c #885008",
".R c #906008",
".S c #909098",
".T c #909490",
".U c #986828",
".V c #987040",
".W c #988468",
".X c #989c98",
".Y c #a08438",
".Z c #a0a0a0",
".0 c #a0a4a0",
".1 c #a89450",
".2 c #b08410",
".3 c #b0b4b8",
".4 c #b8b8b8",
".5 c #b8bcb8",
".6 c #c09428",
".7 c #c8ccc8",
".8 c #c8d4d0",
".9 c #d08c00",
"#. c #d0d4d0",
"## c #d8bc68",
"#a c #d8dcd8",
"#b c #e0e4e0",
"#c c #e89410",
"#d c #e8ac50",
"#e c #e8ece8",
"#f c #f08400",
"#g c #f0c448",
"#h c #f0f4f0",
"#i c #f88400",
"#j c #f88c00",
"#k c #f88c08",
"#l c #f89400",
"#m c #f89408",
"#n c #f89c00",
"#o c #f89c08",
"#p c #f89c10",
"#q c #f8a400",
"#r c #f8a410",
"#s c #f8a420",
"#t c #f8a428",
"#u c #f8ac00",
"#v c #f8ac10",
"#w c #f8ac48",
"#x c #f8b408",
"#y c #f8b418",
"#z c #f8b438",
"#A c #f8bc20",
"#B c #f8bc30",
"#C c #f8bc60",
"#D c #f8c430",
"#E c #f8cc38",
"#F c #f8cc48",
"#G c #f8cc50",
"#H c #f8dcb0",
"#I c #f8f8f8",
"#J c #f8fcf0",
"#K c None",
/* pixels */
"#K#K#K#K#K#K#K#K#K#K#K#K#K#K#K#K#K#K#K#K#K#K#K#K#K#K",
"#K#K#K#K#K#K#K#K#K#K#K#K#K#K#K#K#K#K#K#K#K#K#K#K#K#K",
"#K#K#K#K#K#K#K#K#K#K#K#K#K#K#K#K#K#K#K#K#K#K#K#K#K#K",
"#K#K#K#K#K#K#K#K#K#K#K#K#K#K#K#K#K#K#K#K#K#K#K#K#K#K",
"#K#K#K#K#K#K#K#K#K#K#K#K.O.....O#K#K#K#K#K#K#K#K#K#K",
"#K#K#K#K#K#K#K#K#K#K#K.O.j.......o#K#K#K#K#K#K#K#K#K",
"#K#K#K#K#K#K#K#K#K#K.N.............o#K#K#K#K#K#K#K#K",
"#K#K#K#K#K#K#K#K#K#K.e.........n#e.F#K#K#K#K#K#K#K#K",
"#K#K#K#K#K#K#K#K#K.O.#.e.e....#e.f.g###K#K#K#K#K#K#K",
"#K#K#K#K#K#K#K#K#K.....m.B.A.D#H.S#r#r#D#K#K#K#K#K#K",
"#K#K#K#K#K#K#K#K#K.......b.u.6#E#d#c#j#q#A#C#B#K#K#K",
"#K#K#K#K#K#K#K#K#K.........R#m#p#t#o#n#q#u#u#q#K#K#K",
"#K#K#K#K#K#K#K#K#K.F.......q.Q.Q.9#j#j#j#l#l#K#K#K#K",
"#K#K#K#K#K#K#K#K#K#K.............s#K#K#K#K#K#K#K#K#K",
"#K#K#K#K#K#K#K#K#K.z.#.....#.z.z.l.Z#K#K#K#K#K#K#K#K",
"#K#K#K#K#K#K#K#K#K.b...........i.z.y.J#K#K#K#K#K#K#K",
"#K#K#K#K#K#K#K#K.o.................a.i.G#K#K#K#K#K#K",
"#K#K#K#K#K#K#K.B.i...........#.b.........r#K#K#K#K#K",
"#K#K#K#K#K.P.i.p.#...........i.z.z.j.......d#K#K#K#K",
"#K#K#K.v.o.b.d.t...............#.e.t.z.e.....a#K#K#K",
"#K#K.T.......i.n...................j#a.4.p.e...g#K#K",
"#K#K#K#K.I.F#K.r...................t#b#J.K#K#K#K#K#K",
"#K#K#K#K#K#K#K.e...................r.5#K.X#K#K#K#K#K",
"#K#K#K#K#K#K#K.....................m.T#h.7.O#K#K#K#K",
"#K#K#K#K#K#K#K.....................j.J#..8.L#K#K#K#K",
"#K#K#K#K#K#A.U.....................h.E.3.4.M###K#K#K",
"#K#K#K#K#s#y.U.....................e.z.T.0.V#z#A#K#K",
"#K#K#K#K#s#y.6.s...................a.p.N.M.1#E#y#K#K",
"#K#K#K#K#d#o#D.Y.q...................f.t.W#g#D#v#K#K",
"#K#K#K#K.x#f#x#D.1.q.................#.q.2#y#r#K#K#K",
"#K#K#K#K.t.Q#n#y#G.V.b.................C#f#l#z#K#K#K",
"#K#K#K#K#I.s#f#u#y#F.U.#.............w#f#j#w#K#K#K#K",
"#K#K#K#K#K#K#t#j#m#D#d.k.......#.b.H#f#i#t#K#K#K#K#K",
"#K#K#K#K#K#K#K#w#k#l#o.V........#f#f#f#K#K#K#K#K#K#K",
".c.c.c.c.c.c.c.c.c.c.c.c.c.c.c.c.c.c.c.c.c.c.c.c.c.c"
};
