/* XPM */
static char *runner3[] = {
/* width height num_colors chars_per_pixel */
"    26    35      100            2",
/* colors */
".. c #000000",
".# c #000400",
".a c #080808",
".b c #080c08",
".c c #081020",
".d c #101010",
".e c #181000",
".f c #181410",
".g c #181810",
".h c #181818",
".i c #181c18",
".j c #182020",
".k c #202020",
".l c #282420",
".m c #282828",
".n c #282c28",
".o c #303030",
".p c #303430",
".q c #382808",
".r c #383830",
".s c #383838",
".t c #404038",
".u c #404040",
".v c #404440",
".w c #502800",
".x c #505048",
".y c #505050",
".z c #583810",
".A c #585858",
".B c #606060",
".C c #686460",
".D c #686868",
".E c #686c68",
".F c #707070",
".G c #787470",
".H c #787478",
".I c #787870",
".J c #787878",
".K c #787c78",
".L c #804800",
".M c #808080",
".N c #888888",
".O c #888c88",
".P c #909098",
".Q c #909490",
".R c #987040",
".S c #988468",
".T c #989890",
".U c #989898",
".V c #989c98",
".W c #a07828",
".X c #a08438",
".Y c #a0a0a0",
".Z c #a0a4a0",
".0 c #a89450",
".1 c #a8a8a8",
".2 c #a8aca8",
".3 c #b08410",
".4 c #b0b4b0",
".5 c #b86800",
".6 c #b8bcb8",
".7 c #c09428",
".8 c #c0c4c0",
".9 c #c8bc90",
"#. c #c8ccc8",
"## c #d08c00",
"#a c #d0bc80",
"#b c #d0d4d0",
"#c c #d8dcd8",
"#d c #e8cc78",
"#e c #e8e8e0",
"#f c #e8ece8",
"#g c #f08400",
"#h c #f0c448",
"#i c #f0f0f0",
"#j c #f0f4f0",
"#k c #f88400",
"#l c #f88c00",
"#m c #f89400",
"#n c #f89408",
"#o c #f89c00",
"#p c #f89c10",
"#q c #f89c18",
"#r c #f8a400",
"#s c #f8a418",
"#t c #f8ac00",
"#u c #f8ac10",
"#v c #f8ac30",
"#w c #f8b408",
"#x c #f8b418",
"#y c #f8b420",
"#z c #f8b438",
"#A c #f8c448",
"#B c #f8cc38",
"#C c #f8cc48",
"#D c #f8cc58",
"#E c #f8cc78",
"#F c #f8f8f8",
"#G c #f8fcf0",
"#H c None",
/* pixels */
"#H#H#H#H#H#H#H#H#H#H#H#H#H#H#H#H#H#H#H#H#H#H#H#H#H#H",
"#H#H#H#H#H#H#H#H#H#H#H#H#H#H#H#H#H#H#H#H#H#H#H#H#H#H",
"#H#H#H#H#H#H#H#H#H#H#H#H#H#H#H#H#H#H#H#H#H#H#H#H#H#H",
"#H#H#H#H#H#H#H#H#H#H#H#H#H#H#H#H#H#H#H#H#H#H#H#H#H#H",
"#H#H#H#H#H#H#H#H#H#H#H#H#H#H#H#H#H#H#H#H#H#H#H#H#H#H",
"#H#H#H#H#H#H#H#H#H#H#H#H#H#H#H#H#H#H#H#H#H#H#H#H#H#H",
"#H#H#H#H#H#H#H#H#H#H#H#H#H#H#H#H#H#H#H#H#H#H#H#H#H#H",
"#H#H#H#H#H#H#H#H#H#H#H#H.a.....K#H#H#H#H#H#H#H#H#H#H",
"#H#H#H#H#H#H#H#H#H#H#H.#.#.o.f.k.y#H#H#H#H#H#H#H#H#H",
"#H#H#H#H#H#H#H#H#H#H.u.a.a.#.a.a.a.s#H#H#H#H#H#H#H#H",
"#H#H#H#H#H#H#H#H#H.C.#.#.a.#.#.u#f.E#H#H#H#H#H#H#H#H",
"#H#H#H#H#H#H#H#H#H.f.a.s.u.h.a#f.h.f#d#H#H#H#H#H#H#H",
"#H#H#H#H#H#H#H#H#H.#.a.i.y.S.0#a.P#s#u#E#H#H#H#H#H#H",
"#H#H#H#H#H#H#H#H#H.C.#.a.b.7#C#A#z#n#m#w#A#A#w#H#H#H",
"#H#H#H#H#H#H#H#H#H#H.#.#.e.5#l#n#p#m#o#r#r#r#r#H#H#H",
"#H#H#H#H#H#H#H#H#H.a.a.#.#.b.L#g#g#k#l#k#l#l#H#H#H#H",
"#H#H#H#H#H#H#H#H.u.#.a.#.#.#.#.q.w.X#F#H#H#H#H#H#H#H",
"#H#H#H#H#H#H#H#H.#.a.#.a.a.f.b.#.#.u#H#H#H#H#H#H#H#H",
"#H#H#H#H#H#H#H.A.#.a.#.#.a.m.r.#.#.a.P#H#H#H#H#H#H#H",
"#H#H#H#H#H#H#H.k.a.#.a.a.#.b.u.a.h.N.K#H#H#H#H#H#H#H",
"#H#H#H#H#H#H#H.#.a.#.#.a.a.#.t.n.Z#G.V#H#H#H#H#H#H#H",
"#H#H#H#H#H#H.x.a.#.a.o.f.#.a.m.G#j#H#c.G#H#H#H#H#H#H",
"#H#H#H#H#H#H.s.a.#.#.s.o.#.#.i.H#j#H#H.G#H#H#H#H#H#H",
"#H#H#H#H#H#H.l.#.a.a.m.s.a.a.m.N#G#G#G.M#H#H#H#H#H#H",
"#H#H#H#H#H#H.h.#.#.#.f.y.#.a.o.Z#G#H#G.Q#H#H#H#H#H#H",
"#H#H#H#H#H#H.#.a.a.a.d.y.d.f.y.8#H#G#H.P#H#H#H#H#H#H",
"#H#H#H#H#H#H.#.#.#.#.f.u.g.u.O#e#G#G#G.K#H#H#H#H#H#H",
"#H#H#H#H#H#H.a.a.a.a.m.y.y.D.Y#.#i#H#F.B#H#H#H#H#H#H",
"#H#H#H#H#H#H.#.#.#.#.f.p.o.y.U.1#b#j.6.K#H#H#H#H#H#H",
"#H#H#H#H#H#H.a.a.a.a.a.a.#.s.J.V.4#b.F#H#H#H#H#H#H#H",
"#H#H#H#H.o.o.#.#.#.#.#.a.a.j.y.O.2.Z.D#H#H#H#H#H#H#H",
"#H#H#H#H.a.#.a.a.a.q.3.3.3.W.R.T.9.I#H#H#H#H#H#H#H#H",
"#H#H#H#H#H.f.#.#.b.5#t#t#x#B#D#D#D#h#D#H#H#H#H#H#H#H",
"#H#H#H#H#H#H#H.v.z###l#l#m#q#v#v#z#A#y#z#H#H#H#H#H#H",
".c.c.c.c.c.c.c.c.c.c.c.c.c.c.c.c.c.c.c.c.c.c.c.c.c.c"
};
