/* XPM */
static char *runner7[] = {
/* width height num_colors chars_per_pixel */
"    26    35       98            2",
/* colors */
".. c #000000",
".# c #000400",
".a c #080808",
".b c #080c08",
".c c #081020",
".d c #101010",
".e c #181410",
".f c #181810",
".g c #181818",
".h c #181c18",
".i c #201c18",
".j c #202020",
".k c #202420",
".l c #282420",
".m c #282828",
".n c #282c28",
".o c #303030",
".p c #303430",
".q c #382808",
".r c #383838",
".s c #403018",
".t c #404040",
".u c #484848",
".v c #502800",
".w c #504030",
".x c #505050",
".y c #583810",
".z c #585858",
".A c #606058",
".B c #606060",
".C c #686460",
".D c #686c68",
".E c #704000",
".F c #707070",
".G c #787470",
".H c #787878",
".I c #787c78",
".J c #804800",
".K c #808080",
".L c #808480",
".M c #888888",
".N c #888c88",
".O c #906008",
".P c #909490",
".Q c #986828",
".R c #987040",
".S c #989c98",
".T c #a0a4a0",
".U c #a89450",
".V c #a8aca8",
".W c #b08410",
".X c #b0b4b8",
".Y c #b86800",
".Z c #b8b8b8",
".0 c #b8bcb8",
".1 c #c06810",
".2 c #c0c4c0",
".3 c #c8ccc8",
".4 c #c8d4d0",
".5 c #d0bc80",
".6 c #d8bc68",
".7 c #d8dcd8",
".8 c #e0e4e0",
".9 c #e8ac50",
"#. c #e8bc50",
"## c #e8e8e0",
"#a c #e8e8e8",
"#b c #e8ece8",
"#c c #f08400",
"#d c #f0f0f0",
"#e c #f88400",
"#f c #f88c00",
"#g c #f89400",
"#h c #f89408",
"#i c #f89c00",
"#j c #f89c08",
"#k c #f89c10",
"#l c #f8a400",
"#m c #f8a410",
"#n c #f8a418",
"#o c #f8a420",
"#p c #f8a428",
"#q c #f8ac00",
"#r c #f8b408",
"#s c #f8b418",
"#t c #f8b420",
"#u c #f8bc30",
"#v c #f8bc60",
"#w c #f8c430",
"#x c #f8c448",
"#y c #f8cc50",
"#z c #f8cc58",
"#A c #f8d488",
"#B c #f8dcb0",
"#C c #f8f4d0",
"#D c #f8f8f8",
"#E c #f8fcf0",
"#F c None s None",
/* pixels */
"#F#F#F#F#F#F#F#F#F#F#F#F#F#F#F#F#F#F#F#F#F#F#F#F#F#F",
"#F#F#F#F#F#F#F#F#F#F#F#F#F#F#F#F#F#F#F#F#F#F#F#F#F#F",
"#F#F#F#F#F#F#F#F#F#F#F#F#F#F#F#F#F#F#F#F#F#F#F#F#F#F",
"#F#F#F#F#F#F#F#F#F#F#F#F#F#F#F#F#F#F#F#F#F#F#F#F#F#F",
"#F#F#F#F#F#F#F#F#F#F#F#F#F#F#F#F#F#F#F#F#F#F#F#F#F#F",
"#F#F#F#F#F#F#F#F#F#F#F#F#F#F#F#F#F#F#F#F#F#F#F#F#F#F",
"#F#F#F#F#F#F#F#F#F#F#F#F#F#F#F#F#F#F#F#F#F#F#F#F#F#F",
"#F#F#F#F#F#F#F#F#F#F#F.I.....I#F#F#F#F#F#F#F#F#F#F#F",
"#F#F#F#F#F#F#F#F#F#F.z.o.e.b.j.x#F#F#F#F#F#F#F#F#F#F",
"#F#F#F#F#F#F#F#F#F.r.............m#F#F#F#F#F#F#F#F#F",
"#F#F#F#F#F#F#F#F.H...........o#b.D#F#F#F#F#F#F#F#F#F",
"#F#F#F#F#F#F#F#F.o.#.p.n.b.k#b.g.e.6#F#F#F#F#F#F#F#F",
"#F#F#F#F#F#F#F#F.g...d.u.D.U#C.P#n#t#w#F#F#F#F#F#F#F",
"#F#F#F#F#F#F#F#F.x.......O#x#z#z#m#i#q#s#x#t#F#F#F#F",
"#F#F#F#F#F#F#F#F#F.......E#g#k#p#m#i#l#i#i#i#F#F#F#F",
"#F#F#F#F#F#F#F#F.u.........E.1#e#g#f#e#e#e#F#F#F#F#F",
"#F#F#F#F#F#F#F#F.............#.q.v#D#D#F#F#F#F#F#F#F",
"#F#F#F#F#F#F#F.t...........i.l.....A#F#F#F#F#F#F#F#F",
"#F#F#F#F#F#F#F.#...#.#.....u.t...e.u#F#F#F#F#F#F#F#F",
"#F#F#F#F#F#F#F.....m.B.....x.p.#.G.3.z#F#F#F#F#F#F#F",
"#F#F#F#F#F#F.p.....m.A.....C.o.k.X#F.V.I#F#F#F#F#F#F",
"#F#F#F#F#F#F.......m.B...#.z.m.C.8#E#F.z#F#F#F#F#F#F",
"#F#F#F#F#F#F.......B.B...p.t.k.N###E#E.0.L#F#F#F#F#F",
"#F#F#F#F#F#F.......C.#.m.x.h.r.T.8#F#F.7.K#F#F#F#F#F",
"#F#F#F#F#F#F.....#.C.n.z.j.a.x.0###E#F.7.N#F#F#F#F#F",
"#F#F#F#F#F#F.....d.B.z.f...b.F.2#b#F#E#a.H#F#F#F#F#F",
"#F#F#F#F#F#F.....#.m.b.....m.M.0.7#d#E.4.I#F#F#F#F#F",
"#F#F#F#F#F#F...............p.S.Z.3.7#B.6#F#F#F#F#F#F",
"#F#F#F#F#F#F...........h.w.R.6.6.5#.#t#q#F#F#F#F#F#F",
"#F#F#F#F#F#F.......#.R.9#y#w#s#s#n#r#j#t#F#F#F#F#F#F",
"#F#F#F.g.g.e.....a.W#w#w#o#k#h#i#m#p#v#F#F#F#F#F#F#F",
"#F#F#F...........q#j#k#e#e#e.Y.J.U#A#F#F#F#F#F#F#F#F",
"#F#F#F#F.........a.Y#e#c.Y.y.w.Q.9#w#u#w#F#F#F#F#F#F",
"#F#F#F#F#F#F.b.....#.s.w.y.Q#c#g#g#m#m#F#F#F#F#F#F#F",
".c.c.c.c.c.c.c.c.c.c.c.c.c.c.c.c.c.c.c.c.c.c.c.c.c.c"
};
