/* XPM */
static char *8[] = {
/* width height num_colors chars_per_pixel */
"    16    16        8            1",
/* colors */
". c #5a5a5c",
"# c #aaaaac",
"a c #d0d0d0",
"b c #c0c0c0",
"c c #dadadc",
"d c #b6b6b4",
"e c #c6c6c4",
"f c #e2e2e4",
/* pixels */
"................",
".##############.",
".##############.",
".######eab#####.",
".####dfaafe####.",
".####aa##bf####.",
".####ea##bc####.",
".#####aaafb####.",
".#####caafa####.",
".####aa###fd###.",
".####aa##bfb###.",
".####dfcafa####.",
".######beb#####.",
".##############.",
".##############.",
"................"
};
