/* XPM */
static char *empty_16_up[] = {
/* width height num_colors chars_per_pixel */
"    16    16        3            1",
/* colors */
". c #000000",
"# c #a8a8a8",
"a c #e0e4e0",
/* pixels */
"aaaaaaaaaaaaaaa.",
"aaaaaaaaaaaaaa..",
"aa############..",
"aa############..",
"aa############..",
"aa############..",
"aa############..",
"aa############..",
"aa############..",
"aa############..",
"aa############..",
"aa############..",
"aa############..",
"aa############..",
"a...............",
"................"
};
